<?xml version="1.0" encoding="utf-8"?>
<!-- Svg Vector Icons : http://www.onlinewebfonts.com/icon -->
<!DOCTYPE svg PUBLIC "-//W3C//DTD SVG 1.1//EN" "http://www.w3.org/Graphics/SVG/1.1/DTD/svg11.dtd">
<svg version="1.1" xmlns="http://www.w3.org/2000/svg" xmlns:xlink="http://www.w3.org/1999/xlink" x="0px" y="0px" viewBox="0 0 1000 1000" enable-background="new 0 0 1000 1000" xml:space="preserve">
<metadata> Svg Vector Icons : http://www.onlinewebfonts.com/icon </metadata>
<g fill="#ffffff"><path d="M625.7,262.5H215c-13.1,0-23.8-10.7-23.8-23.8c0-13.2,10.7-23.8,23.8-23.8h410.7c13.1,0,23.8,10.7,23.8,23.8C649.5,251.8,638.8,262.5,625.7,262.5z"/><path d="M574.1,398.6H215c-13.1,0-23.8-10.7-23.8-23.8c0-13.2,10.7-23.8,23.8-23.8h359.1c13.1,0,23.8,10.7,23.8,23.8C597.9,388,587.2,398.6,574.1,398.6z"/><path d="M476.4,531.6H215c-13.1,0-23.8-10.7-23.8-23.8c0-13.1,10.7-23.8,23.8-23.8h261.4c13.1,0,23.8,10.7,23.8,23.8C500.2,520.9,489.6,531.6,476.4,531.6z"/><path d="M453.7,980.6H146.9c-39.8,0-72.2-32.4-72.2-72.2V82.2c0-39.8,32.4-72.2,72.2-72.2h659c39.8,0,72.2,32.4,72.2,72.2v420.5c0,13.2-10.7,23.8-23.8,23.8c-13.1,0-23.8-10.7-23.8-23.8V82.2c0-13.5-11-24.5-24.5-24.5h-659c-13.5,0-24.5,11-24.5,24.5v826.2c0,13.5,11,24.5,24.5,24.5h306.8c13.1,0,23.8,10.7,23.8,23.8C477.5,969.9,466.9,980.6,453.7,980.6z"/><path d="M684.9,990c-132.5,0-240.3-107.8-240.3-240.3c0-132.5,107.8-240.3,240.3-240.3c132.5,0,240.3,107.8,240.3,240.3C925.2,882.2,817.4,990,684.9,990z M684.9,557c-106.2,0-192.7,86.4-192.7,192.7s86.4,192.7,192.7,192.7c106.2,0,192.7-86.4,192.7-192.7S791.1,557,684.9,557z"/><path d="M807.8,806.6H684.9c-13.1,0-23.8-10.7-23.8-23.8v-145c0-13.1,10.7-23.8,23.8-23.8c13.1,0,23.8,10.7,23.8,23.8V759h99.1c13.1,0,23.8,10.7,23.8,23.8C831.6,796,820.9,806.6,807.8,806.6z"/></g>
</svg>